{
	"asset":{
		"generator":"Khronos glTF Blender I/O v3.5.30",
		"version":"2.0"
	},
	"extensionsUsed":[
		"KHR_materials_specular",
		"KHR_materials_ior"
	],
	"scene":0,
	"scenes":[
		{
			"name":"Scene",
			"nodes":[
				0
			]
		}
	],
	"nodes":[
		{
			"mesh":0,
			"name":"Sphere"
		}
	],
	"materials":[
		{
			"doubleSided":true,
			"extensions":{
				"KHR_materials_specular":{
					"specularColorFactor":[
						1.4682757795632324,
						1.4682757795632324,
						1.4682757795632324
					]
				},
				"KHR_materials_ior":{
					"ior":1.4500000476837158
				}
			},
			"name":"Material.001",
			"pbrMetallicRoughness":{
				"baseColorTexture":{
					"index":0
				},
				"metallicFactor":0,
				"roughnessFactor":0.3497409224510193
			}
		}
	],
	"meshes":[
		{
			"name":"Sphere",
			"primitives":[
				{
					"attributes":{
						"POSITION":0,
						"TEXCOORD_0":1,
						"NORMAL":2
					},
					"indices":3,
					"material":0
				}
			]
		}
	],
	"textures":[
		{
			"sampler":0,
			"source":0
		}
	],
	"images":[
		{
			"bufferView":4,
			"mimeType":"image/png",
			"name":"map-4"
		}
	],
	"accessors":[
		{
			"bufferView":0,
			"componentType":5126,
			"count":1924,
			"max":[
				0.9999997019767761,
				0.9807853102684021,
				0.9999993443489075
			],
			"min":[
				-0.9999990463256836,
				-0.9807853102684021,
				-1
			],
			"type":"VEC3"
		},
		{
			"bufferView":1,
			"componentType":5126,
			"count":1924,
			"type":"VEC2"
		},
		{
			"bufferView":2,
			"componentType":5126,
			"count":1924,
			"type":"VEC3"
		},
		{
			"bufferView":3,
			"componentType":5123,
			"count":3072,
			"type":"SCALAR"
		}
	],
	"bufferViews":[
		{
			"buffer":0,
			"byteLength":23088,
			"byteOffset":0,
			"target":34962
		},
		{
			"buffer":0,
			"byteLength":15392,
			"byteOffset":23088,
			"target":34962
		},
		{
			"buffer":0,
			"byteLength":23088,
			"byteOffset":38480,
			"target":34962
		},
		{
			"buffer":0,
			"byteLength":6144,
			"byteOffset":61568,
			"target":34963
		},
		{
			"buffer":0,
			"byteLength":100412,
			"byteOffset":67712
		}
	],
	"samplers":[
		{
			"magFilter":9729,
			"minFilter":9987
		}
	],
	"buffers":[
		{
			"byteLength":168124,
			"uri":"data:application/octet-stream;base64,"
		}
	]
}
